<svg aria-hidden="true" style="position: absolute; width: 0; height: 0; overflow: hidden;" version="1.1" xmlns="http://www.w3.org/2000/svg" xmlns:xlink="http://www.w3.org/1999/xlink">
<defs>
<symbol id="icon-arrow_button" viewBox="0 0 22 32">
<path fill="none" stroke="#d41443" stroke-linejoin="round" stroke-linecap="round" stroke-miterlimit="4" stroke-width="6.4" d="M3.321 3.2l14.974 12.8-14.974 12.8"></path>
</symbol>
<symbol id="icon-close_button_svgomg" viewBox="0 0 32 32">
<path fill="none" stroke="#fff" stroke-linejoin="miter" stroke-linecap="butt" stroke-miterlimit="4" stroke-width="2" d="M2.52 2l26.96 28M2 29.48l28-26.96"></path>
</symbol>

<symbol id="icon-button_close" viewBox="0 0 32 32">
<path stroke-linejoin="miter" stroke-linecap="butt" stroke-miterlimit="4" stroke-width="2" d="M2.519 2l26.963 28"></path>
<path stroke-linejoin="miter" stroke-linecap="butt" stroke-miterlimit="4" stroke-width="2" d="M2 29.481l28-26.963"></path>
</symbol>

<symbol id="icon-heart" viewBox="0 0 28 32">
<path fill="#ffa5ba" style="fill: var(--color1, #ffa5ba)" d="M6.508 0.682c-2.81 0.589-4.991 2.897-5.703 6.037-0.26 1.097-0.249 3.209 0.012 4.409 0.581 2.666 1.873 5.032 3.912 7.087 1.826 1.847 3.426 2.966 5.963 4.132l1.327 0.623v8.414h1.423v-7.953l0.356 0.104c0.107 0.027 0.229 0.043 0.356 0.043s0.249-0.016 0.366-0.046l-0.010 0.002 0.356-0.105v7.953h1.423v-8.426l1.268-0.577c2.455-1.131 4.233-2.354 5.963-4.109 2.764-2.805 4.174-5.991 4.174-9.454 0.012-3.797-1.98-6.879-5.11-7.929-0.664-0.231-1.008-0.266-2.265-0.254-1.316 0.012-1.612 0.058-2.608 0.369-1.174 0.382-2.324 0.982-3.082 1.604l-0.439 0.369-0.64-0.473c-1.648-1.212-3.332-1.801-5.311-1.882-0.688-0.023-1.471 0-1.731 0.058zM9.21 2.113c0.498 0.092 1.174 0.289 1.529 0.427 0.759 0.311 2.027 1.108 2.525 1.582 0.77 0.727 0.985 0.715 1.862-0.070 1.375-1.247 3.592-2.101 5.417-2.101 2.478 0 4.742 1.939 5.465 4.675 0.13 0.484 0.249 1.27 0.261 1.743 0.047 1.039 0.012 1.073-1.6 1.685-1.305 0.497-2.395 0.738-4.268 0.946-1.197 0.138-1.446 0.208-1.814 0.474-0.759 0.565-0.878 0.981-0.878 3.335 0 1.766-0.023 2.101-0.201 2.286-0.249 0.277-0.688 0.265-0.985-0.023-0.225-0.219-0.236-0.381-0.236-2.713 0-2.585-0.071-3.024-0.558-3.543-0.106-0.115-0.948-0.566-1.861-1.015-1.031-0.485-2.063-1.085-2.679-1.558-2.975-2.228-4.292-2.863-6.734-3.244-0.7-0.116-1.292-0.219-1.316-0.231-0.106-0.081 0.534-0.9 1.114-1.408 1.375-1.224 2.94-1.616 4.956-1.247zM5.286 6.569c1.209 0.3 2.572 0.981 3.817 1.905 0.522 0.381 1.186 0.865 1.482 1.085 0.794 0.588 2.11 1.327 3.106 1.743 0.486 0.208 0.948 0.45 1.031 0.554 0.106 0.127 0.142 0.854 0.142 2.666 0 2.182 0.036 2.551 0.226 2.955 0.391 0.831 1.020 1.212 1.98 1.212 0.617 0 1.043-0.185 1.494-0.658 0.51-0.519 0.569-0.842 0.569-3.046 0-2.505-0.024-2.459 1.375-2.574 1.422-0.127 3.189-0.508 4.362-0.935 0.593-0.219 1.103-0.369 1.126-0.335 0.13 0.127-0.759 2.39-1.28 3.266-0.83 1.42-1.482 2.228-2.738 3.406-1.826 1.708-4.339 3.174-6.9 4.051l-0.925 0.323-0.913-0.323c-2.738-0.923-5.157-2.39-7.102-4.271-2.466-2.366-3.758-4.871-4.078-7.837-0.118-1.108 0.060-3.013 0.332-3.463 0.095-0.162 1.79 0.011 2.892 0.277z"></path>
<path fill="none" stroke="#ffa5ba" style="stroke: var(--color1, #ffa5ba)" stroke-linejoin="miter" stroke-linecap="butt" stroke-miterlimit="4" stroke-width="0.6154" d="M6.508 0.682c-2.81 0.589-4.991 2.897-5.703 6.037-0.26 1.097-0.249 3.209 0.012 4.409 0.581 2.666 1.873 5.032 3.912 7.087 1.826 1.847 3.426 2.966 5.963 4.132l1.327 0.623v8.414h1.423v-7.953l0.356 0.104c0.107 0.027 0.229 0.043 0.356 0.043s0.249-0.016 0.366-0.046l-0.010 0.002 0.356-0.105v7.953h1.423v-8.426l1.268-0.577c2.455-1.131 4.233-2.354 5.963-4.109 2.764-2.805 4.174-5.991 4.174-9.454 0.012-3.797-1.98-6.879-5.11-7.929-0.664-0.231-1.008-0.266-2.265-0.254-1.316 0.012-1.612 0.058-2.608 0.369-1.174 0.382-2.324 0.982-3.082 1.604l-0.439 0.369-0.64-0.473c-1.648-1.212-3.332-1.801-5.311-1.882-0.688-0.023-1.471 0-1.731 0.058zM9.21 2.113c0.498 0.092 1.174 0.289 1.529 0.427 0.759 0.311 2.027 1.108 2.525 1.582 0.77 0.727 0.985 0.715 1.862-0.070 1.375-1.247 3.592-2.101 5.417-2.101 2.478 0 4.742 1.939 5.465 4.675 0.13 0.484 0.249 1.27 0.261 1.743 0.047 1.039 0.012 1.073-1.6 1.685-1.305 0.497-2.395 0.738-4.268 0.946-1.197 0.138-1.446 0.208-1.814 0.474-0.759 0.565-0.878 0.981-0.878 3.335 0 1.766-0.023 2.101-0.201 2.286-0.249 0.277-0.688 0.265-0.985-0.023-0.225-0.219-0.236-0.381-0.236-2.713 0-2.585-0.071-3.024-0.558-3.543-0.106-0.115-0.948-0.566-1.861-1.015-1.031-0.485-2.063-1.085-2.679-1.558-2.975-2.228-4.292-2.863-6.734-3.244-0.7-0.116-1.292-0.219-1.316-0.231-0.106-0.081 0.534-0.9 1.114-1.408 1.375-1.224 2.94-1.616 4.956-1.247zM5.286 6.569c1.209 0.3 2.572 0.981 3.817 1.905 0.522 0.381 1.186 0.865 1.482 1.085 0.794 0.588 2.11 1.327 3.106 1.743 0.486 0.208 0.948 0.45 1.031 0.554 0.106 0.127 0.142 0.854 0.142 2.666 0 2.182 0.036 2.551 0.226 2.955 0.391 0.831 1.020 1.212 1.98 1.212 0.617 0 1.043-0.185 1.494-0.658 0.51-0.519 0.569-0.842 0.569-3.046 0-2.505-0.024-2.459 1.375-2.574 1.422-0.127 3.189-0.508 4.362-0.935 0.593-0.219 1.103-0.369 1.126-0.335 0.13 0.127-0.759 2.39-1.28 3.266-0.83 1.42-1.482 2.228-2.738 3.406-1.826 1.708-4.339 3.174-6.9 4.051l-0.925 0.323-0.913-0.323c-2.738-0.923-5.157-2.39-7.102-4.271-2.466-2.366-3.758-4.871-4.078-7.837-0.118-1.108 0.060-3.013 0.332-3.463 0.095-0.162 1.79 0.011 2.892 0.277z"></path>
</symbol>
<symbol id="milk-icon" viewBox="0 0 21 32">
<path fill="#ffa5ba" style="fill: var(--color1, #ffa5ba)" d="M2.333 0.144c-0.349 0.188-0.552 0.563-0.552 1.006 0.006 0.813 0.209 1.556 0.614 2.2l0.178 0.294-0.338 0.381c-0.381 0.425-0.473 0.581-0.644 1.088-0.141 0.412-0.154 1.162-0.031 1.581 0.429 1.437 1.854 2.269 3.247 1.9 0.473-0.125 0.762-0.282 1.203-0.657l0.375-0.312 0.35 0.175c0.196 0.1 0.528 0.243 0.742 0.324l0.381 0.138v0.7c0 1.106 0.227 1.763 0.81 2.356s1.498 0.9 2.291 0.762c0.564-0.1 1.117-0.381 1.491-0.762 0.584-0.594 0.811-1.251 0.811-2.356v-0.7l0.387-0.138c0.209-0.081 0.541-0.225 0.737-0.325l0.349-0.175 0.374 0.312c0.442 0.375 0.731 0.531 1.203 0.657 1.394 0.369 2.819-0.463 3.248-1.9 0.123-0.419 0.111-1.169-0.031-1.581-0.172-0.507-0.264-0.663-0.644-1.088l-0.337-0.381 0.178-0.294c0.405-0.643 0.608-1.388 0.614-2.2 0-0.444-0.204-0.819-0.553-1.006l-0.264-0.144h-15.926l-0.264 0.144zM17.069 2.099c0 0.019-0.179 0.313-0.399 0.662-0.651 1.032-0.626 1.256 0.239 2.17 0.314 0.331 0.602 0.662 0.645 0.737 0.233 0.463-0.234 1.038-0.749 0.919-0.124-0.026-0.394-0.243-0.787-0.631-0.786-0.775-1.056-0.863-1.658-0.518-0.694 0.399-1.578 0.806-2.008 0.924-0.608 0.175-0.817 0.307-0.976 0.637-0.129 0.256-0.141 0.363-0.141 1.363 0 1.231-0.050 1.431-0.399 1.6-0.252 0.125-0.301 0.125-0.553 0-0.35-0.169-0.399-0.369-0.399-1.6 0-1-0.013-1.107-0.135-1.363-0.166-0.324-0.374-0.462-0.982-0.637-0.528-0.15-1.308-0.493-1.738-0.774-0.405-0.262-0.762-0.363-1.043-0.313-0.185 0.038-0.369 0.181-0.86 0.662-0.405 0.394-0.694 0.625-0.817 0.65-0.509 0.119-0.976-0.463-0.742-0.919 0.043-0.075 0.332-0.406 0.644-0.737 0.865-0.913 0.89-1.137 0.239-2.169-0.221-0.349-0.399-0.643-0.399-0.662 0-0.025 2.929-0.037 6.508-0.037s6.508 0.013 6.508 0.037zM0.485 13.206c-0.314 0.212-0.485 0.512-0.485 0.844 0 0.225 3.119 16.925 3.229 17.275 0.055 0.194 0.282 0.425 0.522 0.55 0.227 0.125 0.387 0.125 6.809 0.125s6.582 0 6.809-0.125c0.239-0.125 0.467-0.356 0.522-0.55 0.111-0.35 3.229-17.050 3.229-17.275 0-0.331-0.172-0.631-0.485-0.844l-0.209-0.144h-19.732l-0.209 0.144zM18.695 15.481c-0.061 0.5-0.418 1.587-0.682 2.081-1.283 2.375-3.715 3.819-6.729 3.987-2.278 0.132-4.205-0.331-5.82-1.393-0.94-0.625-1.704-1.443-2.247-2.402l-0.018-0.035c-0.307-0.544-0.712-1.713-0.774-2.238l-0.043-0.356h16.356l-0.043 0.356zM4.39 21.919c2.634 1.775 6.569 2.244 9.885 1.169 1.105-0.356 2.235-0.956 3.18-1.687 0.276-0.219 0.294-0.219 0.264-0.082-0.019 0.081-0.381 1.994-0.804 4.244s-0.78 4.156-0.798 4.232l-0.031 0.143h-11.052l-0.031-0.143c-0.018-0.075-0.374-1.981-0.798-4.232s-0.786-4.163-0.804-4.243c-0.031-0.138-0.013-0.138 0.264 0.081 0.16 0.125 0.491 0.356 0.724 0.518z"></path>
</symbol>
<symbol id="shake-icon" viewBox="0 0 32 32">
<path fill="#ffa5ba" style="fill: var(--color1, #ffa5ba)" d="M29.626 21.411c-1.292-0.458-2.381-0.344-3.242 0.018 0.145-0.877 0.47-1.832 1.169-2.481 0.214-0.195 0.348-0.476 0.348-0.787 0-0.588-0.477-1.065-1.065-1.065-0.283 0-0.541 0.111-0.731 0.291l0-0c-1.229 1.14-1.706 2.749-1.874 4.081-0.307-0.142-0.662-0.25-1.035-0.308l-0.023-0.003 1.89-9.83c0.012-0.061 0.019-0.13 0.019-0.202 0-0.588-0.477-1.064-1.064-1.064-0 0-0 0-0 0h-0.205c0.094-0.5 0.141-0.997 0.138-1.47-0.016-1.994-0.903-3.495-2.374-4.017-1.409-0.5-2.589-0.35-3.507 0.066 0.146-0.976 0.495-2.063 1.282-2.794 0.214-0.195 0.348-0.476 0.348-0.787 0-0.588-0.477-1.065-1.065-1.065-0.283 0-0.541 0.111-0.731 0.291l0-0c-1.32 1.226-1.815 2.966-1.981 4.387-0.735-0.348-1.644-0.526-2.709-0.33-1.094-1.571-2.612-2.295-4.090-1.941-1.451 0.348-2.358 1.115-2.9 1.962-0.41-0.899-0.712-2.001-0.452-3.036 0.018-0.073 0.028-0.157 0.028-0.244 0-0.588-0.477-1.065-1.065-1.065-0.49 0-0.903 0.331-1.027 0.781l-0.002 0.007c-0.439 1.746 0.095 3.475 0.73 4.758-1.016 0.138-2.118 0.65-3.049 1.866-0.578 0.755-0.773 1.698-0.596 2.7-0.408 0.155-0.692 0.543-0.692 0.997 0 0.071 0.007 0.14 0.020 0.207l-0.001-0.007 3.809 19.809c0.096 0.502 0.535 0.864 1.046 0.864h15.237c0.51 0 0.949-0.362 1.046-0.864l0.037-0.195c0.287 0.198 0.595 0.364 0.927 0.486 1.267 0.472 2.447 0.278 3.044 0.118 0.316 0.084 0.795 0.179 1.364 0.179 0.506 0 1.084-0.075 1.68-0.297 2.36-0.879 3.615-3.839 3.596-6.178-0.015-1.904-0.865-3.34-2.275-3.839zM22.675 12.191c-0.491 4.705-4.452 7.909-9.971 7.909s-9.481-3.204-9.971-7.909h19.942zM16.032 7.515c0.184 0.349 0.536 0.567 0.931 0.567s0.746-0.218 0.931-0.567c0.203-0.312 0.46-0.572 0.76-0.771l0.010-0.006c0.629-0.408 1.35-0.46 2.203-0.157 0.851 0.301 0.952 1.518 0.956 2.027 0.004 0.463-0.064 0.961-0.19 1.453h-7.126c0.236-1.19 0.094-2.492-0.289-3.669 0.392 0.022 0.751 0.149 1.055 0.351l-0.008-0.005c0.31 0.205 0.567 0.465 0.763 0.767l0.006 0.010zM3.077 8.724c0.55-0.719 1.183-1.069 1.933-1.069h0.002c0.57 0 1.016 0.207 1.066 0.232 0.341 0.189 0.749 0.172 1.078-0.037 0.332-0.211 0.51-0.592 0.481-0.983-0.006-0.077-0.115-1.894 1.983-2.397 0.877-0.211 1.626 0.754 1.906 1.178 0.808 1.221 1.222 3.108 0.777 4.413h-9.348c-0.141-0.443-0.179-0.943 0.122-1.336zM5.852 29.87l-2.111-10.977c0.138 0.132 0.28 0.262 0.428 0.388 2.208 1.901 5.239 2.948 8.535 2.948s6.328-1.047 8.535-2.948c0.051-0.044 0.102-0.090 0.152-0.134l-0.431 2.243c-0.020 0.006-0.040 0.013-0.061 0.020-1.411 0.5-2.261 1.935-2.276 3.839-0.010 1.165 0.297 2.483 0.898 3.622l-0.192 0.998h-13.477zM27.562 29.432c-0.943 0.351-1.881 0.017-1.916 0.004-0.114-0.046-0.246-0.073-0.384-0.073s-0.27 0.027-0.391 0.076l0.007-0.003c-0.010 0.004-0.96 0.352-1.917-0.004-1.338-0.499-2.223-2.556-2.21-4.166 0.004-0.465 0.095-1.578 0.858-1.849 0.279-0.107 0.601-0.17 0.937-0.175l0.002-0c1.107 0 1.658 0.812 1.782 1.024 0.184 0.35 0.535 0.57 0.931 0.57s0.748-0.22 0.931-0.57c0.156-0.265 0.977-1.468 2.721-0.849 0.763 0.271 0.854 1.383 0.858 1.85 0.013 1.609-0.872 3.667-2.21 4.165z"></path>
</symbol>
</defs>
</svg>
